<svg xmlns="http://www.w3.org/2000/svg" version="1.0" width="410.435" height="285.174"><path d="M225.2 4.398c-28.1 7.734-56.904 23.114-77.166 38.006-20.263 14.892-73.19 52.417-85.275 64.307-11.716 11.529-25.555 15.55-31.61 29.757-2.336 5.478 15.836 22.005 19.397 23.72 9.241 4.453 24.305-3.442 31.178-3.914 22.307-1.53 45.167-4.498 67.76 10.793-4.18 4.22 2.458-.323-6.087 36.693-3.014 13.054-9.6 46.92-1.507 53.38 8.039 6.42 12.949-18.605 20.936-14.773-.004.006-.001.02-.004.026-.002.005-.004.022-.005.026 0 .004-.006.024-.004.027.003.002.02.003.025.005a.427.427 0 00.128-.003c.015.008.035.003.05.01.057.027.108.06.165.087l.048-.128c3.781-.977 33.262-13.966 60.176-8.743 15.171 2.944 39.37-5.31 53.29-9.615 22.076-6.828 53.068-12.998 72.728-13.35 14.483-.26 27.587-8.46 41.52-9.415 8.22-.564.599-27.066.429-29.866-.817-13.455-17.565-34.13-26.191-52.504-8.626-18.373-23.082-41.697-39.004-59.986-15.922-18.29-37.402-41.971-52.525-49.258-15.124-7.288-17.954-13.676-48.452-5.282z" fill="#d00000" fill-rule="evenodd" stroke="#000" stroke-width=".833"/><path d="M158.053 68.958c-18.233 4.417-33.847 62.692-56.319 72.822-14.697 6.626-54.749 16.693-51.188 18.409 9.241 4.452 24.305-3.443 31.178-3.915 22.307-1.53 45.167-4.498 67.76 10.793-4.18 4.22 2.458-.323-6.087 36.693-3.014 13.054-9.6 46.92-1.507 53.38 8.039 6.42 12.949-18.605 20.936-14.773-.004.006-.001.02-.004.026-.002.005-.004.022-.005.026 0 .004-.006.024-.004.027.003.002.02.003.025.005a.427.427 0 00.128-.003c.015.008.035.003.05.01.057.027.108.06.165.087l.048-.128c3.781-.977 33.262-13.966 60.176-8.743 15.171 2.944 39.37-5.31 53.29-9.615 22.076-6.828 53.068-12.998 72.728-13.35 14.483-.26 27.587-8.46 41.52-9.415 8.22-.564-51.085 4.52-27.45-12.576 10.486-7.585-104.983 15.807-149.313-34.777-43.896-50.088-37.456-89.506-56.127-84.983z" opacity=".101" fill="#0e0000" fill-rule="evenodd"/><path d="M33.02 130.247c3.551 2.353 27.399 32.517 30.216 30.405.34-3.33-2.44-4.642-4.397-5.022 2.62-3.33 3.113-6.81-1.433-7.11-5.04-.89-10.542-1.514-5.132-6.936 2.498-3.038-.168-8.435-1.702-11.18-4.03-2.176-7.066-6.114-8.718-8.79" opacity=".27" fill-rule="evenodd" stroke="#000" stroke-width=".83"/><path d="M356.695 195.2c-7.451-2.642-16.801-5.694-23.39-5.286-4.525-3.823-7.998.887-11.919 2.141-.658-7.36-11.51 3.112-16.29 3.173-3.395 1.948-1.056-5.8-7.134-2.853-7.558.714-12.233 1.233-17.84 3.66-1.346 8.013-13.448 12.527-15.26 3.744-6.598 2.872-18.869 8.441-18.948-.641-10.564 8.194-10.9 15.598-21.214 19.553.913-7.093-22.37-10.908-25.544-3.465-6.39 2.573 1.329-9.321-7.905-6.052-10.4-3.024-4.347 17.934-25.553 9.366-11.808-.38-5.27 16.719-13.062 23.882-2.076 7.532-11.083-2.624-14.729-2.06.848 11.926 3.408 7.882.72 15.996-1.605 10.166-3.752 15.256 7.431 17.373 3.621-4.904-.182-2.83.628 6.217 6.458-1.88 14.946-12.64 14.075-1.581 4.382-6.674 18.254-10.152 18.08-17.34 7.022.738 14.902 8.58 20.83-.952 5.95-7.042 14.504-10.307 14.594-4.869 7.234 6.757 7.957 5.387 15.478 3.668-1.937-8.712 17.6-.599 7.283-9.272 4.097-4.103 15.187-6.501 21.596-5.075 5.67 8.254 22.944 8.937 25.632-1.747.564-8.405 13.682-11.279 18.587-5.468 8.53-7.48 21.984 3.388 29.324-2.345-6.597-8.563 9.325-14.158 12.298-7.593 5.842-3.136 11.278-14.423 17.668-6.343 7.35-2.395 16.325-5.725 22.543-8.221 4.666 7.693 16.747-.221 11.51-9.533-2.835-6.65 9.31 3.275 6.004-5.163-3.761-9.077-9.043-21.692-15.514-21.275-8.813-2.202-14.038 3.745-14.404 12.16-.111-6.14-10.522-.155-15.983 2.072l-2.994.713-3.577-2.523" opacity=".294" fill-rule="evenodd" stroke="#000" stroke-width=".601"/><path d="M361.621 197.445c-7.45-2.642-14.356-3.014-20.944-2.606-4.525-3.823-9.895-2.57-13.816-1.316-.658-7.36-9.614 6.57-14.394 6.63-3.395 1.948-1.055-5.8-7.134-2.853-7.557.714-16.319-3.973-21.925-1.545-1.347 8.012-13.45 12.526-15.26 3.744-6.6 2.871-14.783 13.646-14.862 4.564-12.385-.543-17.69 11.633-28.004 15.588.913-7.093-15.58-6.943-18.755.5-6.39 2.573-1.699-13.439-10.933-10.17-10.4-3.024-10.116 17.697-22.525 13.484-11.808-.38-10.158 11.358-17.951 18.52-2.076 7.533-6.194 2.738-9.84 3.302 6 8.514-18.392 6.74-11.15 19.87-1.605 10.165.848 17.472 12.03 19.589 3.622-4.904 7.09-8.92 7.9.127 6.457-1.88 14.946-12.64 14.075-1.581 4.382-6.674 18.254-10.152 18.08-17.34 7.021.738 14.902 8.58 20.83-.952 5.95-7.042 6.933-1.296 7.023 4.142 7.233 6.756 15.528-3.624 23.049-5.343-1.938-8.712 17.599-.599 7.282-9.272 4.098-4.103 15.188-6.501 21.597-5.075 5.623 5.334 22.944 8.937 25.631-1.747.564-8.405 13.683-11.279 18.588-5.469 8.53-7.478 21.984 3.389 29.324-2.344-6.598-8.563 9.324-14.158 12.298-7.593 5.841-3.136 11.278-14.423 17.668-6.343 7.35-2.395 16.325-5.725 22.542-8.221 4.667 7.693 16.748-.221 11.51-9.533-2.834-6.65 9.31 3.275 6.004-5.163.074-9.657-3.563-24.6-15.514-21.275-8.812-2.202-14.037 3.745-14.403 12.16-.111-6.14-14.026-3.923-19.486-1.696l-1.79.946-1.278 1.012" fill="#fff" fill-rule="evenodd" stroke="#000" stroke-width=".601"/><path d="M146.777 186.503c3.14-40.848 23.786-59.45 20.152-92.12-2.149-19.311-19.537-4.674-13.87 13.441" fill="none" stroke="#000" stroke-width=".833"/><path d="M155.075 242.233c-2.076 7.533-6.193 2.738-9.839 3.302 6 8.513-18.393 6.74-11.151 19.87-1.605 10.165.848 17.472 12.031 19.589 3.621-4.904 7.089-8.92 7.899.127 6.458-1.88 14.946-12.64 14.075-1.581 4.382-6.674 18.254-10.152 18.08-17.34 7.022.738 14.566 7.35 20.493-2.182 5.951-7.041 7.27-.067 7.36 5.372 7.234 6.756 15.528-3.624 23.05-5.343-1.938-8.712 8.866-1.545 7.282-9.272-1.037-5.06 33.645-3.562 28.656-8.51-14.905-14.787-38.19 7.492-41.56 6.07-3.368-1.422-7.09-.56-2.384-2.72 4.706-2.16-6.743 1.393-16.278-1.994-9.535-3.387-16.514.895-17.151 9.343-7.182-4.467-7.696.607-18.885 3.718 7.13-10.423-12.6-2.769-12.6-2.769s3.437-11.428-2.74-9.92c3.321-5.964-.364-7.801-.364-7.801s1.819-5.122-5.974 2.041z" opacity=".112" fill-rule="evenodd"/><path d="M38.042 121.86c-1.301-2.319-5.357-2.957-5.88-4.923.907-2.284-2.658-.627-3.36-1.883-4.195 3.434-9.985 4.92-13.094 9.643 1.653-.362 1.65-2.779-.157-.996-3.4 1.69-6.688 4.658-5.409 8.893.31 2.173-2.425 4.043.914 4.558-.436 3.479-5.655 3.333-5.658 6.403 1.155 3.35.647 6.84-2.101 9.19-2.718 2.542-1.599 6.283-1.5 9.37-1.367 2.066-2.136 3.987-.334 5.954.381 3.548 3.327 5.897 3.349 9.59 1.24 1.934 3.726 1.814 4.996 4 3.71.316 3.983 5.497 7.518 6.216 3.036.99 6.628.304 9.364 1.03 2.244 1.819 4.82 3.087 7.644 3.597 3.55 2.26 4.758-3.364 6.907-5.175.111-2.832 2.146-3.053 3.508-.668 3.101 2.102 6.314-1.518 8.537-3.434 2.174-2.37 4.612-4.42 7.032-6.497 3.436-3.879 4.656-9.43 4.464-14.535.34-3.2-2.634-3.377-4.59-3.742.884-2.682 3.113-6.541-1.433-6.829-2.607-.68-8.517-3.593-5.133-6.662 2.498-2.918-.94-6.847-2.473-9.484-2.656-2.114-4.2-5.059-5.851-7.63-3.198-.51-6.195-2.453-7.01-5.845-.853-2.694-.236-.7.033.612" fill="#fff" fill-rule="evenodd" stroke="#000" stroke-width=".814"/><path d="M11.502 157.46c-1.601-1.968 4.722-1.04 4.2-3.006.906-2.284-.178-2.379-.881-3.634-4.194 3.433-3.207-4.701-6.315.022 1.653-.363 1.381-6.334-.425-4.552-3.4 1.69-2.68-5.805-2.683-2.735 1.155 3.35.647 6.84-2.101 9.19-2.718 2.542-1.599 6.283-1.5 9.37-1.367 2.066-2.136 3.987-.334 5.954.381 3.548 3.327 5.897 3.349 9.59 1.24 1.934 3.726 1.814 4.996 4 3.71.316 3.983 5.497 7.518 6.216 3.036.99 6.628.304 9.364 1.03 2.244 1.819 4.82 3.087 7.644 3.597 3.55 2.26 4.758-3.364 6.907-5.175.111-2.832 2.146-3.053 3.508-.668 3.101 2.102 6.314-1.518 8.537-3.434 2.174-2.37-8.346.36-5.925-1.718 3.435-3.878-7.753 5.414-7.945.309.34-3.2-12.37 4.07-9.679-1.554.885-2.683 1.536-.748-3.01-1.035-2.607-.681-9.803-5.494-6.418-8.563 2.497-2.918-1.343.457-2.876-2.18-2.657-2.114-.96-.95-2.612-3.52-3.197-.51-1.791-1.817-2.607-5.21-1.383 3.98-.981-3.605-.712-2.293z" opacity=".096" fill-rule="evenodd"/><path d="M148.768 167.976s13.144-33.512 16.303-46.881c2.955-12.51 2.572-31.604-1.853-35.138-4.426-3.534-10.247 2.579-10.861 9.816-.614 7.238-1.127 9.062 1.844 22.868 1.346 6.258.674 21.093-1.157 28.094-1.832 7.002-5.827 22.946-4.276 21.241z" fill-opacity=".223" fill-rule="evenodd"/></svg>