<svg xmlns="http://www.w3.org/2000/svg" viewBox="0 0 512 512"><path fill="currentColor" d="M441.969 439.973l-67.898-61.015a37.69 37.69 0 00.424-5.627 37.53 37.53 0 00-.178-3.613h28.17a10.705 10.705 0 007.66-18.188l-74.863-76.666h15.807a10.706 10.706 0 008.666-16.997l-90.255-124.376 22.163 12.536a10.701 10.701 0 0011.565-.657 10.709 10.709 0 004.199-10.796l-8.165-40.157 30.21-27.688a10.706 10.706 0 00-6.022-18.531l-40.714-4.644-16.996-37.288a10.709 10.709 0 00-19.486 0l-16.999 37.287-40.714 4.644a10.708 10.708 0 00-6.022 18.531l30.21 27.688-8.165 40.157a10.706 10.706 0 0015.764 11.453l22.163-12.536-90.253 124.377a10.708 10.708 0 008.666 16.997h15.807L101.85 351.53a10.706 10.706 0 007.66 18.188h38.699l-78.18 70.254a10.706 10.706 0 007.157 18.671h122.6v42.649c0 5.914 4.795 10.707 10.707 10.707h91.013c5.913 0 10.707-4.794 10.707-10.707v-42.649h122.6a10.704 10.704 0 007.156-18.67zM230.232 115.825l4.692-23.076a10.705 10.705 0 00-3.257-10.026l-17.36-15.91 23.396-2.668a10.705 10.705 0 008.53-6.197L256 36.521l9.768 21.427a10.707 10.707 0 008.529 6.197l23.396 2.668-17.36 15.91a10.708 10.708 0 00-3.258 10.027l4.692 23.076-20.497-11.594a10.699 10.699 0 00-10.542 0l-20.496 11.593zM256 151.344l31.21 43.009c-6.457 3.457-13.211 6.316-20.01 8.679a37.23 37.23 0 00-17.269-4.233c-11.853 0-22.43 5.538-29.302 14.154-3.574.366-6.907.631-9.931.818L256 151.344zm9.992 84.933c0 8.856-7.205 16.061-16.061 16.061s-16.061-7.205-16.061-16.061 7.205-16.061 16.061-16.061 16.061 7.205 16.061 16.061zM134.933 348.305v-.002l74.863-76.666a10.706 10.706 0 00-7.66-18.188h-20.229l12.936-17.826c.835.015 1.86.026 3.06.026 3.507 0 8.51-.1 14.581-.478-.011.368-.028.734-.028 1.105 0 20.664 16.812 37.476 37.476 37.476 20.664 0 37.476-16.812 37.476-37.476a37.221 37.221 0 00-3.869-16.558c5.539-2.292 11.018-4.909 16.341-7.904l30.213 41.636h-20.229a10.7 10.7 0 00-9.072 5.036l-.006-.004c-.292.469-18.878 29.659-51.911 55.123-6.809-6.964-16.296-11.297-26.781-11.297-20.664 0-37.476 16.812-37.476 37.476 0 2.123.186 4.202.528 6.23a150.108 150.108 0 01-10.082 2.292h-40.131zm103.22-8.524c0 8.856-7.205 16.061-16.061 16.061s-16.061-7.205-16.061-16.061 7.205-16.061 16.061-16.061 16.061 7.205 16.061 16.061zM105.12 437.229l52.132-46.847c16.831 8.14 63.093 30.001 108.325 46.847H105.12zm185.678 53.356H221.2v-31.941h69.598v31.941zm55.25-53.356v.001c-42.642-2.996-135.932-45.475-171.543-62.351l6.606-5.936a175.724 175.724 0 0013.784-3.419c6.836 7.218 16.496 11.734 27.198 11.734 20.664 0 37.476-16.812 37.476-37.476a37.62 37.62 0 00-.626-6.783c25.153-18.717 42.88-39.652 52.272-52.134l65.853 67.438h-12.182c-6.866-7.636-16.813-12.448-27.865-12.448-20.664 0-37.476 16.812-37.476 37.476 0 20.664 16.812 37.476 37.476 37.476 10.75 0 20.45-4.556 27.29-11.832l42.569 38.254h-60.832zm7.032-63.897c0 8.856-7.205 16.061-16.061 16.061s-16.061-7.205-16.061-16.061 7.205-16.061 16.061-16.061 16.061 7.205 16.061 16.061z"/></svg>
